<?xml version="1.0" encoding="utf-8"?>
<!-- Svg Vector Icons : http://www.onlinewebfonts.com/icon -->
<!DOCTYPE svg PUBLIC "-//W3C//DTD SVG 1.1//EN" "http://www.w3.org/Graphics/SVG/1.1/DTD/svg11.dtd">
<svg version="1.1" xmlns="http://www.w3.org/2000/svg" xmlns:xlink="http://www.w3.org/1999/xlink" x="0px" y="0px" viewBox="0 0 256 256" enable-background="new 0 0 256 256" xml:space="preserve">
<metadata> Svg Vector Icons : http://www.onlinewebfonts.com/icon </metadata>
<g><g><path fill="#000000" d="M235.8,95.8v37.7l9.1,10.4L227.5,159l-15.9-15.1l9.6-10.7V102c-51.5,21-65.5,27.5-76.9,32.6c-11.4,5.1-19.7,5.1-31,0.8c-11.3-4.2-62.7-23.7-89.5-36.4c-17.9-8.5-19-13.8,0.3-21c25.2-9.5,64.3-24.7,86.5-32.9c13.1-5.2,20-8.1,32-2.1C164,51.8,210.4,70,234.8,80C256,89.1,241.7,92.1,235.8,95.8L235.8,95.8L235.8,95.8L235.8,95.8z M146.7,150.3c12.5-5.1,29.3-13.5,47.6-21.3v62.3c0,0-23.7,24.9-65.3,24.9c-44.8,0-69-24.9-69-24.9v-58.2c14.1,5.7,30,10.6,49.2,17.1C121,154.5,136,155.9,146.7,150.3L146.7,150.3L146.7,150.3L146.7,150.3z"/></g></g>
</svg>